<?xml version="1.0" encoding="utf-8"?>
<!-- Generator: Adobe Illustrator 21.0.0, SVG Export Plug-In . SVG Version: 6.00 Build 0)  -->
<svg version="1.1" id="Laag_1" xmlns="http://www.w3.org/2000/svg" xmlns:xlink="http://www.w3.org/1999/xlink" x="0px" y="0px"
	 viewBox="0 0 508 508" style="enable-background:new 0 0 508 508;" xml:space="preserve">
<style type="text/css">
	.st0{fill:#020203;}
</style>
<title>checked (1)</title>
<desc>Created with Sketch.</desc>
<g id="Page-1">
	<g id="checked-_x28_1_x29_">
		<g id="Group" transform="translate(85.000000, 125.000000)">
			<path id="Shape_2_" class="st0" d="M331.6-20.3c13.9-13.9,37.6-13.9,51.5,0l28.7,28.7c13.9,13.9,13.9,37.6,0,51.5L193.9,276.7
				c-13.9,13.9-37.6,13.9-51.5,0L113.7,248c-13.9-13.9-13.9-37.6,0-51.5L331.6-20.3z"/>
			<path id="Shape_3_" class="st0" d="M-74.6,59.4c-13.9-13.9-13.9-37.6,0-51.5l28.7-28.7c13.9-13.9,37.6-13.9,51.5,0L222.5,197
				c13.9,13.9,13.9,37.6,0,51.5l-28.7,28.7c-13.9,13.9-37.6,13.9-51.5,0L-74.6,59.4z"/>
		</g>
	</g>
</g>
</svg>
