<?xml version="1.0" encoding="utf-8"?>
<!-- Generator: Adobe Illustrator 21.0.0, SVG Export Plug-In . SVG Version: 6.00 Build 0)  -->
<svg version="1.1" id="Laag_1" xmlns="http://www.w3.org/2000/svg" xmlns:xlink="http://www.w3.org/1999/xlink" x="0px" y="0px"
	 viewBox="0 0 69 69" style="enable-background:new 0 0 69 69;" xml:space="preserve">
<style type="text/css">
	.st0{fill:#FFFFFF;}
	.st1{fill:#020204;}
</style>
<g>
	<polygon class="st0" points="67.1,1.5 1.9,1.5 1.9,67.5 48.4,67.5 67.1,48.9 	"/>
	<g>
		<path class="st1" d="M30.8,38.6c1.5-1.3,2.2-3,2.2-5.2c0-5.4-4.9-7.4-9.1-7.4c-3.3,0-6.3,1.4-8.6,3.9c-0.2,0.2-0.2,0.6,0,0.9
			l3.4,3.4c0.1,0.1,0.3,0.2,0.5,0.2c0.2,0,0.3-0.1,0.5-0.2c1.2-1.5,2.5-2.1,4.4-2.1c1.5,0,2.6,0.8,2.6,1.9c0,0.5,0,2.1-3.7,2.1h-1.6
			c-0.3,0-0.6,0.3-0.6,0.6v4.8c0,0.3,0.3,0.6,0.6,0.6h2c2.6,0,4,0.7,4,2.2c0,1.6-1.6,2.1-3.2,2.1c-2,0-3.6-0.8-4.9-2.4
			c-0.1-0.1-0.3-0.2-0.5-0.2c-0.2,0-0.4,0.1-0.5,0.2l-3.5,3.5c-0.2,0.2-0.2,0.6,0,0.8c2,2.5,5.6,4.1,9.1,4.1c5.9,0,9.8-3.2,9.8-8
			C33.6,41.6,32.3,39.6,30.8,38.6z"/>
		<path class="st1" d="M68.5,49C68.5,49,68.5,48.9,68.5,49l0-47.5c0-0.8-0.6-1.5-1.5-1.5H1.9C1.1,0,0.5,0.6,0.5,1.5v66.1
			c0,0.8,0.6,1.5,1.5,1.5h46.5c0.2,0,0.4,0,0.6-0.1c0.2-0.1,0.3-0.2,0.5-0.3l18.6-18.6c0.1-0.1,0.2-0.3,0.3-0.4c0,0,0-0.1,0-0.1
			C68.5,49.3,68.5,49.1,68.5,49z M3.4,16.6h62.2v30.8l-9.5-0.1v-0.8c0-0.3-0.3-0.6-0.6-0.6h-5.1V27c0-0.3-0.3-0.6-0.6-0.6h-4.6
			c-0.2,0-0.5,0.1-0.6,0.4c-1.2,2.5-4.5,2.9-5.9,3c-0.3,0-0.6,0.3-0.6,0.6v4.6c0,0.3,0.3,0.6,0.6,0.6c1.9,0,3.8-0.4,5.3-1.1v11.4
			h-5.3c-0.3,0-0.6,0.3-0.6,0.6v4.8c0,0.3,0.3,0.6,0.6,0.6h8.4L47,66.1H3.4V16.6z M59.3,54.6c0-0.5-0.5-1-1-1
			c-0.6,0-1.1,0.5-1.1,1.1c0,0.6,0.4,1,1,1l-1.5,1.5c-0.2-0.2-0.4-0.3-0.7-0.3c-0.6,0-1.1,0.5-1.1,1.1c0,0.3,0.1,0.5,0.3,0.7
			l-1.4,1.4c-0.4,0.1-0.6,0.4-0.7,0.7L49.9,64l0-1.8c0.5-0.1,0.9-0.5,0.9-1c0-0.5-0.4-0.9-0.9-1l0.1-10l13.6,0.1L59.3,54.6z"/>
		<ellipse class="st1" cx="51.7" cy="51.8" rx="1.1" ry="1.1"/>
		<ellipse class="st1" cx="55.9" cy="51.8" rx="1.1" ry="1.1"/>
		<ellipse class="st1" cx="60.2" cy="51.8" rx="1.1" ry="1.1"/>
		<ellipse class="st1" cx="54" cy="54.7" rx="1.1" ry="1.1"/>
		<ellipse class="st1" cx="51.7" cy="58" rx="1.1" ry="1.1"/>
	</g>
</g>
</svg>
