<?xml version="1.0" encoding="utf-8"?>
<!-- Generator: Adobe Illustrator 21.0.0, SVG Export Plug-In . SVG Version: 6.00 Build 0)  -->
<svg version="1.1" id="Laag_1" xmlns="http://www.w3.org/2000/svg" xmlns:xlink="http://www.w3.org/1999/xlink" x="0px" y="0px"
	 viewBox="0 0 69 69" style="enable-background:new 0 0 69 69;" xml:space="preserve">
<style type="text/css">
	.st0{fill:#FFFFFF;}
	.st1{fill:#020204;}
</style>
<g>
	<circle class="st0" cx="34" cy="34.5" r="32.6"/>
	<g>
		<path class="st1" d="M68.5,8.8L57.6,1.4c-0.3-0.2-0.6-0.2-0.9-0.2c-0.3,0.1-0.6,0.2-0.8,0.5l-3,4.6c-5.4-3.7-12-5.8-19-5.8
			c-18.7,0-34,15.2-34,34s15.2,34,34,34c18.7,0,34-15.2,34-34c0-6-1.6-11.6-4.3-16.5l5.1-7.6C69.2,9.9,69,9.2,68.5,8.8z M65.1,34.5
			c0,17.2-14,31.1-31.1,31.1c-8.2,0-15.6-3.2-21.2-8.3c0,0,0.1-0.1,0.1-0.1c0.2-0.5,0-1.1-0.6-1.3c-0.3-0.1-0.6-0.1-0.9,0.1
			C10.2,54.6,9,53.2,8,51.7c0.3-0.1,0.6-0.3,0.7-0.6c0.2-0.5,0-1.1-0.6-1.3c-0.4-0.2-0.9,0-1.1,0.3c-1-1.7-1.8-3.4-2.4-5.3
			c0.1-0.4-0.1-0.7-0.3-0.9C4,42.9,3.7,42,3.5,41c0.3-0.1,0.5-0.3,0.7-0.6c0.2-0.5,0-1.1-0.6-1.3C3.5,39,3.3,39,3.2,39
			c-0.1-0.8-0.2-1.7-0.3-2.5c0.4,0,0.8-0.2,0.9-0.6c0.2-0.5,0-1.1-0.6-1.3c-0.1-0.1-0.3-0.1-0.4-0.1c0-0.9,0-1.8,0.1-2.6
			c0.2-0.1,0.4-0.3,0.5-0.5c0.2-0.4,0-0.9-0.3-1.2C3.4,28,4,25.9,4.7,23.8c0.1,0.2,0.3,0.4,0.5,0.5c0.5,0.2,1.1,0,1.3-0.6
			c0.2-0.5,0-1.1-0.6-1.3c-0.2-0.1-0.5-0.1-0.7,0c0.8-2,1.9-3.9,3.1-5.6c0.5,0.2,1.1-0.1,1.3-0.6c0.1-0.3,0.1-0.7-0.1-1
			c0.5-0.7,1.1-1.4,1.7-2c0.1,0.2,0.3,0.4,0.5,0.5c0.5,0.2,1.1,0,1.3-0.6c0.2-0.5,0-1.1-0.5-1.3c0.7-0.6,1.3-1.2,2-1.8
			c0.1,0.3,0.3,0.5,0.6,0.6c0.5,0.2,1.1,0,1.3-0.6c0.2-0.5,0-0.9-0.4-1.2c0.7-0.5,1.5-1,2.2-1.4c0.1,0.1,0.2,0.1,0.3,0.2
			c0.5,0.2,1.1,0,1.3-0.6C20,7,20,6.8,20,6.7c1.8-0.9,3.8-1.7,5.8-2.2c-0.2,0.1-0.4,0.3-0.5,0.5c-0.2,0.5,0,1.1,0.6,1.3
			c0.5,0.2,1.1,0,1.3-0.6c0.2-0.5,0-1.1-0.6-1.3c-0.2-0.1-0.3-0.1-0.5-0.1c2.1-0.5,4.3-0.9,6.5-1c0,0-0.1,0.1-0.1,0.1
			c-0.2,0.5,0,1.1,0.6,1.3c0.5,0.2,1.1,0,1.3-0.6c0.1-0.3,0.1-0.7-0.1-0.9c6.3,0.1,12.2,2,17,5.3L32.9,36.9L22.7,23.5
			c-0.2-0.3-0.5-0.4-0.8-0.5c-0.3,0-0.6,0.1-0.9,0.3l-10.2,8.3c-0.5,0.4-0.6,1.1-0.2,1.7l0,0c-0.1,0-0.1-0.1-0.2-0.1
			c-0.5-0.2-1.1,0-1.3,0.6c-0.2,0.5,0,1.1,0.6,1.3c0.5,0.2,1.1,0,1.3-0.6c0.1-0.2,0.1-0.5,0-0.7l21.9,27c0.2,0.3,0.6,0.4,0.9,0.4
			c0,0,0,0,0.1,0c0.4,0,0.7-0.2,0.9-0.5l27-40C63.9,24.8,65.1,29.5,65.1,34.5z"/>
		<ellipse transform="matrix(0.3777 -0.9259 0.9259 0.3777 -41.2153 43.2268)" class="st1" cx="11.6" cy="52.3" rx="1" ry="1"/>
		<ellipse transform="matrix(0.378 -0.9258 0.9258 0.378 -40.283 47.7017)" class="st1" cx="15.4" cy="53.8" rx="1" ry="1"/>
		<ellipse transform="matrix(0.378 -0.9258 0.9258 0.378 -34.1508 32.3881)" class="st1" cx="7" cy="41.6" rx="1" ry="1"/>
		<ellipse transform="matrix(0.3777 -0.9259 0.9259 0.3777 -33.2236 36.8899)" class="st1" cx="10.8" cy="43.2" rx="1" ry="1"/>
		<ellipse transform="matrix(0.3782 -0.9257 0.9257 0.3782 -32.291 41.3536)" class="st1" cx="14.6" cy="44.7" rx="1" ry="1"/>
		<ellipse transform="matrix(0.3775 -0.926 0.926 0.3775 -31.363 45.8825)" class="st1" cx="18.4" cy="46.3" rx="1" ry="1"/>
		<ellipse transform="matrix(0.3788 -0.9255 0.9255 0.3788 -38.1374 35.5163)" class="st1" cx="7.4" cy="46.2" rx="1" ry="1"/>
		<ellipse transform="matrix(0.3774 -0.9261 0.9261 0.3774 -37.2237 40.0771)" class="st1" cx="11.2" cy="47.7" rx="1" ry="1"/>
		<ellipse transform="matrix(0.3779 -0.9258 0.9258 0.3779 -36.2882 44.5395)" class="st1" cx="15" cy="49.3" rx="1" ry="1"/>
		<ellipse transform="matrix(0.3767 -0.9263 0.9263 0.3767 -35.3606 49.0973)" class="st1" cx="18.8" cy="50.8" rx="1" ry="1"/>
		<ellipse transform="matrix(0.3779 -0.9258 0.9258 0.3779 -44.2797 50.8743)" class="st1" cx="15.7" cy="58.4" rx="1" ry="1"/>
		<ellipse transform="matrix(0.3784 -0.9256 0.9256 0.3784 -26.1564 26.0374)" class="st1" cx="6.3" cy="32.5" rx="1" ry="1"/>
		<ellipse transform="matrix(0.3774 -0.926 0.926 0.3774 -30.1606 29.2419)" class="st1" cx="6.7" cy="37.1" rx="1" ry="1"/>
		<ellipse transform="matrix(0.3781 -0.9258 0.9258 0.3781 -29.2261 33.7045)" class="st1" cx="10.5" cy="38.6" rx="1" ry="1"/>
		<ellipse transform="matrix(0.377 -0.9262 0.9262 0.377 -28.2986 38.2409)" class="st1" cx="14.3" cy="40.2" rx="1" ry="1"/>
		<ellipse transform="matrix(0.3774 -0.9261 0.9261 0.3774 -17.2395 24.2223)" class="st1" cx="9.4" cy="24.9" rx="1" ry="1"/>
		<ellipse transform="matrix(0.3779 -0.9259 0.9259 0.3779 -16.3082 28.698)" class="st1" cx="13.2" cy="26.5" rx="1" ry="1"/>
		<ellipse transform="matrix(0.377 -0.9262 0.9262 0.377 -22.1689 22.9144)" class="st1" cx="5.9" cy="27.9" rx="1" ry="1"/>
		<ellipse transform="matrix(0.3779 -0.9259 0.9259 0.3779 -21.235 27.3759)" class="st1" cx="9.8" cy="29.5" rx="1" ry="1"/>
		<ellipse transform="matrix(0.3777 -0.9259 0.9259 0.3777 -13.2434 21.0412)" class="st1" cx="9" cy="20.4" rx="1" ry="1"/>
		<ellipse transform="matrix(0.3774 -0.9261 0.9261 0.3774 -12.311 25.5408)" class="st1" cx="12.8" cy="21.9" rx="1" ry="1"/>
		<ellipse transform="matrix(0.3779 -0.9259 0.9259 0.3779 -11.3838 30.0176)" class="st1" cx="16.6" cy="23.5" rx="1" ry="1"/>
		<ellipse transform="matrix(0.3777 -0.9259 0.9259 0.3777 -8.5905 43.4925)" class="st1" cx="28.1" cy="28.1" rx="1" ry="1"/>
		<ellipse transform="matrix(0.3772 -0.9261 0.9261 0.3772 -8.3131 22.3757)" class="st1" cx="12.5" cy="17.4" rx="1" ry="1"/>
		<ellipse transform="matrix(0.3777 -0.9259 0.9259 0.3777 -7.3853 26.8551)" class="st1" cx="16.3" cy="18.9" rx="1" ry="1"/>
		<ellipse transform="matrix(0.3777 -0.9259 0.9259 0.3777 -6.4558 31.3431)" class="st1" cx="20.1" cy="20.5" rx="1" ry="1"/>
		<ellipse transform="matrix(0.3777 -0.9259 0.9259 0.3777 -5.5259 35.8311)" class="st1" cx="23.9" cy="22" rx="1" ry="1"/>
		<ellipse transform="matrix(0.3775 -0.926 0.926 0.3775 -4.5905 40.3298)" class="st1" cx="27.7" cy="23.6" rx="1" ry="1"/>
		<ellipse transform="matrix(0.3777 -0.9259 0.9259 0.3777 -3.3889 23.6825)" class="st1" cx="15.9" cy="14.4" rx="1" ry="1"/>
		<ellipse transform="matrix(0.3783 -0.9257 0.9257 0.3783 -2.4676 28.159)" class="st1" cx="19.7" cy="15.9" rx="1" ry="1"/>
		<ellipse transform="matrix(0.3786 -0.9256 0.9256 0.3786 -1.5428 32.6388)" class="st1" cx="23.5" cy="17.5" rx="1" ry="1"/>
		<ellipse transform="matrix(0.3775 -0.926 0.926 0.3775 -0.5938 37.1603)" class="st1" cx="27.3" cy="19" rx="1" ry="1"/>
		<ellipse transform="matrix(0.3774 -0.9261 0.9261 0.3774 0.3397 41.6547)" class="st1" cx="31.1" cy="20.6" rx="1" ry="1"/>
		<ellipse transform="matrix(0.3769 -0.9263 0.9263 0.3769 12.3427 32.1491)" class="st1" cx="30.1" cy="6.9" rx="1" ry="1"/>
		<ellipse transform="matrix(0.3777 -0.9259 0.9259 0.3777 13.2486 36.6235)" class="st1" cx="33.9" cy="8.5" rx="1" ry="1"/>
		<ellipse transform="matrix(0.3782 -0.9257 0.9257 0.3782 18.1618 37.9346)" class="st1" cx="37.3" cy="5.4" rx="1" ry="1"/>
		<ellipse transform="matrix(0.3789 -0.9254 0.9254 0.3789 1.5194 24.9806)" class="st1" cx="19.4" cy="11.4" rx="1" ry="1"/>
		<ellipse transform="matrix(0.3786 -0.9256 0.9256 0.3786 2.4511 29.4722)" class="st1" cx="23.2" cy="12.9" rx="1" ry="1"/>
		<ellipse transform="matrix(0.3784 -0.9256 0.9256 0.3784 3.3826 33.9631)" class="st1" cx="27" cy="14.5" rx="1" ry="1"/>
		<ellipse transform="matrix(0.378 -0.9258 0.9258 0.378 4.3213 38.4648)" class="st1" cx="30.8" cy="16" rx="1" ry="1"/>
		<ellipse transform="matrix(0.3772 -0.9261 0.9261 0.3772 6.4725 26.3327)" class="st1" cx="22.8" cy="8.4" rx="1" ry="1"/>
		<ellipse transform="matrix(0.3774 -0.926 0.926 0.3774 7.4005 30.8187)" class="st1" cx="26.6" cy="9.9" rx="1" ry="1"/>
		<ellipse transform="matrix(0.378 -0.9258 0.9258 0.378 8.3165 35.2966)" class="st1" cx="30.4" cy="11.5" rx="1" ry="1"/>
		<ellipse transform="matrix(0.3775 -0.926 0.926 0.3775 9.2614 39.7987)" class="st1" cx="34.2" cy="13" rx="1" ry="1"/>
	</g>
</g>
</svg>
