<?xml version="1.0" encoding="utf-8"?>
<!-- Generator: Adobe Illustrator 21.0.0, SVG Export Plug-In . SVG Version: 6.00 Build 0)  -->
<svg version="1.1" id="Laag_1" xmlns="http://www.w3.org/2000/svg" xmlns:xlink="http://www.w3.org/1999/xlink" x="0px" y="0px"
	 viewBox="0 0 69 69" style="enable-background:new 0 0 69 69;" xml:space="preserve">
<style type="text/css">
	.st0{fill:#FFFFFF;}
	.st1{fill:#020204;}
</style>
<g>
	<polygon class="st0" points="55.1,60 50.5,29.6 49.3,21.5 46.2,1.4 18,5.6 18,5.7 18,5.7 13.9,10.6 18.2,38.8 28.9,37.2 33.5,67.6 
		51,65 55,60.1 55,60.1 	"/>
	<g>
		<path class="st1" d="M56.4,59.8L47.6,1.2C47.5,0.4,46.8-0.1,46,0L17.8,4.3c-0.4,0.1-0.7,0.3-0.9,0.6l-4,4.9
			c-0.2,0.3-0.4,0.7-0.3,1.1L16.8,39c0,0.1,0.1,0.1,0.1,0.2c0,0.1,0,0.2,0.1,0.3c0.1,0.1,0.1,0.2,0.2,0.3c0,0,0.1,0.1,0.1,0.1
			c0,0,0,0,0,0c0,0,0.1,0.1,0.2,0.1c0.1,0.1,0.2,0.1,0.3,0.1c0.1,0,0.1,0,0.2,0c0.1,0,0.1,0,0.2,0c0,0,0.1,0,0.1,0c0,0,0.1,0,0.1,0
			l9.4-1.4l4.4,29.1c0,0.1,0.1,0.1,0.1,0.2c0,0.1,0,0.2,0.1,0.3c0,0.1,0.1,0.1,0.2,0.2c0,0.1,0.1,0.1,0.1,0.2c0,0,0,0,0,0
			c0,0,0,0,0,0c0.1,0.1,0.2,0.1,0.2,0.1c0,0,0.1,0.1,0.1,0.1c0.1,0,0.3,0.1,0.4,0.1l0,0h0l0,0c0.1,0,0.1,0,0.2,0l17.5-2.6
			c0.3-0.1,0.6-0.2,0.9-0.5l4-4.9c0,0,0,0,0,0C56.4,60.6,56.5,60.2,56.4,59.8z M53.5,58.9l-14.8,2.2l-4.4-29.1
			c-0.1-0.7-0.7-1.2-1.3-1.2c-0.1,0-0.1,0-0.2,0l-9.4,1.4l-0.1-0.4c0,0,0.1,0,0.1,0c0.5,0.1,1.1-0.2,1.2-0.8
			c0.1-0.5-0.2-1.1-0.8-1.2c-0.3-0.1-0.5,0-0.8,0.2l-0.4-2.5c0.4-0.1,0.7-0.4,0.7-0.8c0.1-0.5-0.2-1.1-0.8-1.2c-0.1,0-0.2,0-0.2,0
			L22,23.1c0.1-0.1,0.2-0.3,0.2-0.4c0.1-0.4-0.1-0.8-0.4-1l-0.5-3.3c0-0.1,0.1-0.2,0.1-0.2c0.1-0.3-0.1-0.6-0.3-0.9L19.5,6.8l0.1,0
			c0.1,0.2,0.3,0.3,0.5,0.3c0.5,0.1,0.9-0.2,1.1-0.6l2.6-0.4c-0.2,0.1-0.4,0.4-0.5,0.7c-0.1,0.5,0.2,1.1,0.8,1.2
			c0.5,0.1,1.1-0.2,1.2-0.8c0.1-0.5-0.2-1-0.8-1.1l6-0.9c0.1,0.1,0.2,0.1,0.4,0.1c0.4,0.1,0.7-0.1,0.9-0.3l13.3-2L53.5,58.9z
			 M30.4,37.6l1.7-2.1l4.1,26.8l-1.7,2.1L30.4,37.6z M21.5,37l1.4-1.8l6.8-1l-1.5,1.8L21.5,37z M17.1,8.9l3.7,24.6l-1.7,2.1L15.4,11
			L17.1,8.9z M50.3,63.7l-13.5,2l1.5-1.8l13.5-2L50.3,63.7z"/>
		<path class="st1" d="M30.9,19.5c-0.3,0.4-0.2,1,0.2,1.3l2.3,1.7c0.2,0.1,0.4,0.2,0.5,0.2c0.3,0,0.6-0.1,0.7-0.4
			c0.3-0.4,0.2-1-0.2-1.3l-0.6-0.5L44,19.1c0.5-0.1,0.8-0.5,0.8-1l-0.6-4.4c-0.1-0.5-0.5-0.8-1-0.8L40,13.3c-0.5,0.1-0.8,0.5-0.8,1
			c0.1,0.5,0.5,0.8,1,0.8l2.2-0.3l0.4,2.6l-9.1,1.4l0.4-0.5c0.3-0.4,0.2-1-0.2-1.3c-0.4-0.3-1-0.2-1.3,0.2L30.9,19.5z"/>
		<ellipse transform="matrix(0.1927 -0.9813 0.9813 0.1927 0.6935 38.8368)" class="st1" cx="24" cy="19" rx="1" ry="1"/>
		<ellipse transform="matrix(0.1925 -0.9813 0.9813 0.1925 -2.5179 43.4519)" class="st1" cx="25.1" cy="23.3" rx="1" ry="1"/>
		<path class="st1" d="M22.5,10.7c0-0.2,0-0.3,0-0.5c-0.1-0.4-0.4-0.7-0.8-0.8c-0.5-0.1-1.1,0.2-1.2,0.8c0,0.2,0,0.3,0,0.5
			c0.1,0.4,0.4,0.7,0.8,0.8C21.9,11.5,22.4,11.2,22.5,10.7z"/>
		<ellipse transform="matrix(0.1924 -0.9813 0.9813 0.1924 9.5386 34.0738)" class="st1" cx="25.5" cy="11.2" rx="1" ry="1"/>
		<ellipse transform="matrix(0.1928 -0.9812 0.9812 0.1928 3.9112 34.2284)" class="st1" cx="22.8" cy="14.7" rx="1" ry="1"/>
		<ellipse transform="matrix(0.1928 -0.9812 0.9812 0.1928 6.3104 38.6744)" class="st1" cx="26.7" cy="15.5" rx="1" ry="1"/>
		<ellipse transform="matrix(0.1926 -0.9813 0.9813 0.1926 -5.7388 48.0575)" class="st1" cx="26.3" cy="27.5" rx="1" ry="1"/>
		<ellipse transform="matrix(0.1925 -0.9813 0.9813 0.1925 3.0992 43.2889)" class="st1" cx="27.9" cy="19.8" rx="1" ry="1"/>
		<ellipse transform="matrix(0.193 -0.9812 0.9812 0.193 11.9226 38.5082)" class="st1" cx="29.4" cy="12" rx="1" ry="1"/>
		<ellipse transform="matrix(0.1923 -0.9813 0.9813 0.1923 15.1594 33.9128)" class="st1" cx="28.2" cy="7.7" rx="1" ry="1"/>
	</g>
</g>
</svg>
