<?xml version="1.0" encoding="utf-8"?>
<!-- Generator: Adobe Illustrator 21.0.0, SVG Export Plug-In . SVG Version: 6.00 Build 0)  -->
<svg version="1.1" id="Laag_1" xmlns="http://www.w3.org/2000/svg" xmlns:xlink="http://www.w3.org/1999/xlink" x="0px" y="0px"
	 viewBox="0 0 69 69" style="enable-background:new 0 0 69 69;" xml:space="preserve">
<style type="text/css">
	.st0{fill:#020203;}
	.st1{fill:#FFFFFF;}
</style>
<g>
	<path class="st0" d="M64.7,16.1H4.2C1.9,16.1,0,18,0,20.3v23.4c0,2.3,1.9,4.2,4.2,4.2h6.7l2.8,4.5c0.2,0.4,0.6,0.6,1.1,0.6
		c0,0,0,0,0,0c0.4,0,0.8-0.2,1.1-0.6l2.7-4.5h46.2c2.3,0,4.2-1.9,4.2-4.2V20.3C68.9,18,67,16.1,64.7,16.1z M19.5,38.3
		c0.2,0.2,0.2,0.5,0,0.7l-0.9,1.2c-0.1,0.1-0.2,0.2-0.4,0.2c0,0,0,0,0,0c-0.1,0-0.2,0-0.3-0.1l-8.7-8c-0.1-0.1-0.2-0.2-0.2-0.4
		c0-0.1,0.1-0.3,0.2-0.4l8.7-8c0.1-0.1,0.2-0.1,0.4-0.1c0.1,0,0.3,0.1,0.4,0.2l0.9,1.2c0.2,0.2,0.1,0.5-0.1,0.7l-7,6.4L19.5,38.3z
		 M32.4,39.9c0,0.1-0.1,0.3-0.1,0.4c-0.1,0.1-0.2,0.1-0.4,0.1h0l-1.7,0c-0.3,0-0.5-0.2-0.5-0.5l0-6.9c0-0.8,0-3.3-1-3.3
		c-1,0-2,0.9-2.4,1.9c-0.6,1.1-0.6,2.3-0.6,3.6l0,4.7c0,0.1-0.1,0.3-0.1,0.4c-0.1,0.1-0.2,0.1-0.4,0.1h0l-1.7,0
		c-0.3,0-0.5-0.2-0.5-0.5l0-16.4c0-0.1,0.1-0.3,0.1-0.4c0.1-0.1,0.2-0.1,0.4-0.1h0l1.7,0c0.3,0,0.5,0.2,0.5,0.5l0,5
		c0.9-0.8,2-1.2,3.1-1.2c0.8,0,1.7,0.1,2.4,1c0.7,0.9,1.1,2.5,1.1,4.8L32.4,39.9z M45.2,39.9c0,0.1-0.1,0.3-0.1,0.4
		c-0.1,0.1-0.2,0.1-0.4,0.1h0l-7.5,0c-0.3,0-0.5-0.2-0.5-0.5l0-1.4c0-0.1,0.1-0.3,0.1-0.4C37,38,37.1,38,37.2,38h0l2.5,0l0-12
		l-2.5,0.8c-0.1,0-0.3,0-0.4-0.1c-0.1-0.1-0.2-0.2-0.2-0.4l0-1.3c0-0.2,0.1-0.4,0.4-0.5l4.8-1.5c0.2,0,0.3,0,0.4,0.1
		c0.1,0.1,0.2,0.2,0.2,0.4l0,14.5l2.4,0c0.3,0,0.5,0.2,0.5,0.5L45.2,39.9z M59.4,32.3l-8.7,8c-0.1,0.1-0.2,0.1-0.3,0.1c0,0,0,0,0,0
		c-0.1,0-0.3-0.1-0.4-0.2L49,39.1c-0.2-0.2-0.1-0.5,0-0.7l7-6.4l-7-6.5c-0.2-0.2-0.2-0.5,0-0.7l0.9-1.2c0.1-0.1,0.2-0.2,0.4-0.2
		c0.1,0,0.3,0,0.4,0.1l8.7,8c0.1,0.1,0.2,0.2,0.2,0.4C59.6,32.1,59.5,32.2,59.4,32.3z"/>
	<g>
		<path class="st1" d="M19.6,24.8l-0.9-1.2c-0.1-0.1-0.2-0.2-0.4-0.2c-0.1,0-0.3,0-0.4,0.1l-8.7,8c-0.1,0.1-0.2,0.2-0.2,0.4
			c0,0.1,0.1,0.3,0.2,0.4l8.7,8c0.1,0.1,0.2,0.1,0.3,0.1c0,0,0,0,0,0c0.1,0,0.3-0.1,0.4-0.2l0.9-1.2c0.2-0.2,0.1-0.5,0-0.7l-7-6.5
			l7-6.4C19.7,25.3,19.8,25,19.6,24.8z"/>
		<path class="st1" d="M28.9,27.3c-1.1,0-2.2,0.4-3.1,1.2l0-5c0-0.3-0.2-0.5-0.5-0.5l-1.7,0h0c-0.1,0-0.3,0.1-0.4,0.1
			c-0.1,0.1-0.1,0.2-0.1,0.4l0,16.4c0,0.3,0.2,0.5,0.5,0.5l1.7,0h0c0.1,0,0.3-0.1,0.4-0.1c0.1-0.1,0.1-0.2,0.1-0.4l0-4.7
			c0-1.3,0-2.5,0.6-3.6c0.5-0.9,1.4-1.9,2.4-1.9c1,0,1,2.5,1,3.3l0,6.9c0,0.3,0.2,0.5,0.5,0.5l1.7,0h0c0.1,0,0.3-0.1,0.4-0.1
			c0.1-0.1,0.1-0.2,0.1-0.4l0-6.8c0-2.3-0.4-3.9-1.1-4.8C30.6,27.4,29.6,27.3,28.9,27.3z"/>
		<path class="st1" d="M44.7,38l-2.4,0l0-14.5c0-0.2-0.1-0.3-0.2-0.4c-0.1-0.1-0.3-0.1-0.4-0.1L37,24.5c-0.2,0.1-0.3,0.3-0.4,0.5
			l0,1.3c0,0.2,0.1,0.3,0.2,0.4c0.1,0.1,0.3,0.1,0.4,0.1l2.5-0.8l0,12l-2.5,0h0c-0.1,0-0.3,0.1-0.4,0.1c-0.1,0.1-0.1,0.2-0.1,0.4
			l0,1.4c0,0.3,0.2,0.5,0.5,0.5l7.5,0h0c0.1,0,0.3-0.1,0.4-0.1c0.1-0.1,0.1-0.2,0.1-0.4l0-1.4C45.2,38.2,45,38,44.7,38z"/>
		<path class="st1" d="M59.4,31.6l-8.7-8c-0.1-0.1-0.2-0.1-0.4-0.1c-0.1,0-0.3,0.1-0.4,0.2l-0.9,1.2c-0.2,0.2-0.1,0.5,0,0.7l7,6.5
			l-7,6.4c-0.2,0.2-0.2,0.5,0,0.7l0.9,1.2c0.1,0.1,0.2,0.2,0.4,0.2c0,0,0,0,0,0c0.1,0,0.2,0,0.3-0.1l8.7-8c0.1-0.1,0.2-0.2,0.2-0.4
			C59.6,31.8,59.5,31.7,59.4,31.6z"/>
	</g>
</g>
</svg>
