<?xml version="1.0" encoding="utf-8"?>
<!-- Generator: Adobe Illustrator 21.0.0, SVG Export Plug-In . SVG Version: 6.00 Build 0)  -->
<svg version="1.1" id="Laag_1" xmlns="http://www.w3.org/2000/svg" xmlns:xlink="http://www.w3.org/1999/xlink" x="0px" y="0px"
	 viewBox="0 0 69 69" style="enable-background:new 0 0 69 69;" xml:space="preserve">
<style type="text/css">
	.st0{fill:#FFFFFF;}
	.st1{fill:#020204;}
</style>
<g>
	<rect x="1" y="28" class="st0" width="67.1" height="28.7"/>
	<g>
		<path class="st1" d="M68,27.1H32.8c0.2-0.2,0.4-0.4,0.8-0.6c0.2-0.1,0.5-0.3,0.9-0.4c1.2-0.5,3-1.2,3.4-3.1c0.6-2.9-1.6-4.4-3-5.3
			c-0.2-0.2-0.4-0.3-0.6-0.4c-0.8-0.6-0.6-1-0.6-1.2c0.3-0.7,1.3-1.5,2.4-1.5c0.9,0.1,1.7-0.6,1.7-1.5c0-0.9-0.6-1.7-1.5-1.7
			c-2.4-0.1-4.9,1.4-5.6,3.6c-0.7,1.8,0,3.7,1.7,4.9c0.2,0.2,0.5,0.4,0.8,0.5c1.4,0.9,1.7,1.3,1.6,1.9c0,0.2-1,0.6-1.4,0.8
			c-0.4,0.2-0.9,0.4-1.3,0.6c-1.1,0.6-2.4,1.6-2.8,3.4H1c-0.5,0-1,0.4-1,1v28.7c0,0.5,0.4,1,1,1H68c0.5,0,1-0.4,1-1V28
			C69,27.5,68.6,27.1,68,27.1z M67.1,55.7H1.9V29h65.1V55.7z"/>
		<path class="st1" d="M30.5,30.4H24h-6.5H11h0H4c-0.4,0-0.7,0.3-0.7,0.7v5.5v5.5v5.5v5.5c0,0.4,0.3,0.7,0.7,0.7h8.3h27.8h9.4h7.3
			h7.6c0.4,0,0.7-0.3,0.7-0.7v-5.5c0,0,0-0.1,0-0.1c0,0,0-0.1,0-0.1V36.9c0,0,0-0.1,0-0.1c0,0,0-0.1,0-0.1v-5.5
			c0-0.4-0.3-0.7-0.7-0.7H50h-6.5H37H30.5z M43.5,37.2h0.7v4.2h-3h-2.2v-4.2H43.5z M50,37.2h0.7v4.2h-3h-2.2v-4.2H50z M57.2,37.2
			v4.2h-3H52v-4.2H57.2z M63.9,37.2V47h-2.5v-4.9c0-0.4-0.3-0.7-0.7-0.7h-2.2v-4.2H63.9z M56.9,47h-2.1v-4.2h3h2.2V47H56.9z
			 M49.6,47h-1.2v-4.2h3h2.2V47H49.6z M41.9,47v-4.2h3h2.2V47H41.9z M40.2,47h-4.8v-4.2h3h2.2V47H40.2z M28.9,47v-4.2h3h2.2V47H28.9
			z M22.4,47v-4.2h3h2.2V47H22.4z M15.9,47v-4.2h3h2.2V47H15.9z M12.3,47H4.7v-4.2h7.7h2.2V47H12.3z M11,37.2L11,37.2h0.7v4.2H4.7
			v-4.2H11z M17.5,37.2h0.7v4.2h-3h-2.2v-4.2H17.5z M24,37.2h0.7v4.2h-3h-2.2v-4.2H24z M30.5,37.2h0.7v4.2h-3h-2.2v-4.2H30.5z
			 M37.7,41.5h-3h-2.2v-4.2H37h0.7V41.5z M36.4,35.9h-4.5h-0.7v-4.2h5.2V35.9z M29.9,35.9h-4.5h-0.7v-4.2h5.2V35.9z M23.4,35.9h-4.5
			h-0.7v-4.2h5.2V35.9z M16.9,35.9h-4.5h-0.7v-4.2h5.2V35.9z M4.7,31.7h5.7v4.2H4.7V31.7z M4.7,48.3h7v4.2h-7V48.3z M13,48.3h2.2
			h6.5h6.5h6.5h4.8v4.2H13V48.3z M40.8,48.3h0.4h6.5H49v4.2h-8.1V48.3z M50.3,48.3h4h2.1v4.2h-6V48.3z M63.9,52.5h-6.3v-4.2h3.1h3.1
			V52.5z M63.9,35.9h-6h-6.5h-0.7v-4.2h13.2V35.9z M49.4,35.9h-4.5h-0.7v-4.2h5.2V35.9z M42.9,35.9h-4.5h-0.7v-4.2h5.2V35.9z"/>
	</g>
</g>
</svg>
