<?xml version="1.0" encoding="utf-8"?>
<!-- Generator: Adobe Illustrator 21.0.0, SVG Export Plug-In . SVG Version: 6.00 Build 0)  -->
<svg version="1.1" id="Laag_1" xmlns="http://www.w3.org/2000/svg" xmlns:xlink="http://www.w3.org/1999/xlink" x="0px" y="0px"
	 viewBox="0 0 69 69" style="enable-background:new 0 0 69 69;" xml:space="preserve">
<style type="text/css">
	.st0{fill:#FFFFFF;}
	.st1{fill:#1A1A18;}
</style>
<g>
	<g>
		<circle class="st0" cx="34.5" cy="35.1" r="27.5"/>
	</g>
	<g>
		<circle class="st1" cx="28.1" cy="35.8" r="2.3"/>
		<circle class="st1" cx="38.7" cy="35.8" r="2.3"/>
		<path class="st1" d="M57.7,10.3c0.1-0.4,0.1-0.9-0.2-1.3C54.8,5.3,49,3.5,44.7,2.7c-1.9-0.6-3.8-1-5.8-1.3C37.3,0.5,35.2,0,32.7,0
			c-6.1,0-14.4,3-15.3,4.7c-0.2,0.3-0.2,0.8-0.2,1.2C7.2,11.7,0.5,22.6,0.5,35c0,18.7,15.2,34,34,34s34-15.2,34-34
			C68.5,25.3,64.3,16.5,57.7,10.3z M41.3,55c-1.8,1.9-4.2,2.9-6.8,2.9c-2.4,0-4.7-0.9-6.4-2.5c-0.9-0.8-1-2.3-0.1-3.2
			c0.8-0.9,2.3-1,3.2-0.1c0.9,0.9,2.1,1.3,3.4,1.3c1.7,0,2.9-0.8,3.6-1.5c0.9-0.9,2.3-0.9,3.2-0.1C42.2,52.7,42.2,54.1,41.3,55z
			 M48.9,48.4c-0.2,0-0.3,0-0.4,0c-1.1-0.1-2.1-0.6-3.1-1c-1.3-0.6-2.6-1.2-4.3-1.2c-0.5,0-0.9,0-1.4,0.1c-2.2,0.4-3.9,1.2-5.2,2.3
			c-1.3-1.1-3-1.9-5.2-2.3c-0.5-0.1-0.9-0.1-1.4-0.1c-1.6,0-3,0.6-4.3,1.2c-1,0.5-2,0.9-3.1,1c-0.1,0-0.2,0-0.3,0
			C18,48.4,9.8,46.1,9.8,35c0-4.5,1.2-8.7,3.4-12.4c0.5,0.1,1,0.1,1.5,0.1h0c3.3,0,6.3-1.4,8.5-2.8c-0.6,1.6-1.1,2.8-1.1,2.8
			c-0.2,0.5-0.1,1,0.1,1.4c0.3,0.4,0.7,0.7,1.2,0.7l0.4,0c10.4,0,17.6-4,20.3-5.8c5,5.8,8.7,7.1,12.9,8.5c0.4,0.1,0.8,0.3,1.2,0.4
			c0.7,2.2,1,4.6,1,7.1C59.2,46,51.7,48.4,48.9,48.4z"/>
	</g>
</g>
</svg>
