<?xml version="1.0" encoding="utf-8"?>
<!-- Generator: Adobe Illustrator 21.0.0, SVG Export Plug-In . SVG Version: 6.00 Build 0)  -->
<svg version="1.1" id="Laag_1" xmlns="http://www.w3.org/2000/svg" xmlns:xlink="http://www.w3.org/1999/xlink" x="0px" y="0px"
	 viewBox="0 0 69 69" style="enable-background:new 0 0 69 69;" xml:space="preserve">
<style type="text/css">
	.st0{fill:#FFFFFF;}
	.st1{fill:#1A1A18;}
</style>
<g>
	<path class="st0" d="M50.6,67.6c3.5-3.3,4.6-11.9,4.6-14.5V39c0-1.7-1.5-3.1-3.4-3.1c-1.9,0-3.4,1.4-3.4,3.1v4.8v-9.5
		c0-1.7-1.5-3.1-3.4-3.1c-1.9,0-3.4,1.4-3.4,3.1v7.9v-11c0-1.7-1.5-3.1-3.4-3.1c-1.9,0-3.4,1.4-3.4,3.1v9.5v-22
		c0-1.7-1.5-3.1-3.4-3.1c-1.9,0-3.4,1.4-3.4,3.1l0,26.7c-0.3-1.8-1.4-3.2-3.4-3.2c-2.3,0-3.6,1.7-3.6,3.7v6.1
		c0,6.3,4.4,13.2,8.3,15.6H50.6z"/>
	<g>
		<circle class="st1" cx="42.4" cy="50.4" r="0.8"/>
		<circle class="st1" cx="33.9" cy="47" r="0.8"/>
		<circle class="st1" cx="40.7" cy="47" r="0.8"/>
		<circle class="st1" cx="49.2" cy="63.8" r="0.8"/>
		<circle class="st1" cx="47.5" cy="60.4" r="0.8"/>
		<circle class="st1" cx="50.9" cy="60.4" r="0.8"/>
		<circle class="st1" cx="45.8" cy="57" r="0.8"/>
		<circle class="st1" cx="49.2" cy="57" r="0.8"/>
		<circle class="st1" cx="50.9" cy="46.8" r="0.8"/>
		<circle class="st1" cx="51.1" cy="40" r="0.8"/>
		<circle class="st1" cx="52.6" cy="43.4" r="0.8"/>
		<circle class="st1" cx="47.5" cy="53.6" r="0.8"/>
		<circle class="st1" cx="50.9" cy="53.6" r="0.8"/>
		<circle class="st1" cx="45.8" cy="50.2" r="0.8"/>
		<circle class="st1" cx="39" cy="50.2" r="0.8"/>
		<circle class="st1" cx="37.3" cy="46.8" r="0.8"/>
		<circle class="st1" cx="44.1" cy="46.8" r="0.8"/>
		<circle class="st1" cx="44.1" cy="53.6" r="0.8"/>
		<circle class="st1" cx="47.5" cy="46.8" r="0.8"/>
		<circle class="st1" cx="49.2" cy="50.2" r="0.8"/>
		<circle class="st1" cx="52.6" cy="50.2" r="0.8"/>
		<path class="st1" d="M51.8,34.4c-0.7,0-1.4,0.1-2,0.4v-0.6c0-2.5-2.2-4.5-4.8-4.5c-0.8,0-1.5,0.2-2.1,0.5c-0.5-2-2.4-3.6-4.7-3.6
			c-0.7,0-1.4,0.1-2,0.4v-4h12.4c1.3,0,2.3-1,2.3-2.3s-1-2.3-2.3-2.3H37.1l8.2-8.2c0.9-0.9,0.9-2.3,0-3.2c-0.9-0.9-2.3-0.9-3.2,0
			l-8,8c-0.2-0.1-0.4-0.2-0.6-0.3V2.3c0-1.3-1-2.3-2.3-2.3C30.1,0,29,1,29,2.3v12.4c-0.2,0.1-0.4,0.2-0.6,0.3L20.5,7
			c-0.9-0.9-2.3-0.9-3.2,0c-0.9,0.9-0.9,2.3,0,3.2l8.2,8.2H14.6c-1.3,0-2.3,1-2.3,2.3s1,2.3,2.3,2.3h11.9l0,18.1
			c-0.6-0.3-1.3-0.4-2-0.4c-2.9,0-5,2.2-5,5.1v6.1c0,6.7,4.6,14.1,8.9,16.8c0.2,0.1,0.5,0.2,0.8,0.2h21.5c0.4,0,0.7-0.1,1-0.4
			c3.9-3.7,5.1-12.7,5.1-15.5V39C56.7,36.4,54.5,34.4,51.8,34.4z M53.8,53.1c0,2.6-1.1,9.9-3.8,13H29.6c-3.5-2.5-7.3-8.7-7.3-14.2
			v-6.1c0-1.1,0.6-2.3,2.2-2.3c0.4,0,1.7,0,2,2c0.1,0.7,0.8,1.3,1.5,1.2c0.7-0.1,1.3-0.7,1.3-1.4l0-26.7c0-0.9,0.9-1.7,2-1.7
			c1.1,0,2,0.8,2,1.7v22c0,0.8,0.6,1.4,1.4,1.4c0.8,0,1.4-0.6,1.4-1.4v-9.5c0-0.9,0.9-1.7,2-1.7c1.1,0,2,0.8,2,1.7v11
			c0,0.8,0.6,1.4,1.4,1.4c0.8,0,1.4-0.6,1.4-1.4v-7.9c0-0.9,0.9-1.7,2-1.7s2,0.8,2,1.7v9.5c0,0.8,0.6,1.4,1.4,1.4
			c0.8,0,1.4-0.6,1.4-1.4V39c0-0.9,0.9-1.7,2-1.7c1.1,0,2,0.8,2,1.7V53.1z"/>
	</g>
</g>
</svg>
