<?xml version="1.0" encoding="utf-8"?>
<!-- Generator: Adobe Illustrator 21.0.0, SVG Export Plug-In . SVG Version: 6.00 Build 0)  -->
<svg version="1.1" id="Laag_1" xmlns="http://www.w3.org/2000/svg" xmlns:xlink="http://www.w3.org/1999/xlink" x="0px" y="0px"
	 viewBox="0 0 54.6 54.6" style="enable-background:new 0 0 54.6 54.6;" xml:space="preserve">
<style type="text/css">
	.st0{fill:#FFFFFF;}
	.st1{fill:#020204;}
</style>
<g>
	<path class="st0" d="M46.7,8C41.3,2.7,34.8,0.4,32.2,3c-1.6,1.6-1.3,4.8,0.5,8.3l-8.2,7.9c-8-3.5-15.2,3.4-15.2,3.4
		s-2.2,6.3,6.2,15.6c7.9,8.8,17.2,6.5,17.2,6.5c3.5-4.1,5.5-8.6,2.1-15l8.1-8.1c3.7,2.1,7.1,2.5,8.8,0.8C54.3,19.9,52.1,13.4,46.7,8
		z"/>
	<g>
		<path class="st1" d="M47.5,7.2c-4-4-8.7-6.5-12.3-6.5c-1.6,0-2.9,0.5-3.8,1.4c-1.6,1.6-1.8,4.2-0.7,7.3c0.2,0.5,0.4,1,0.6,1.5
			l-7.1,6.9c-1.4-0.5-2.9-0.8-4.4-0.8c-6.3,0-11.1,4.5-11.3,4.7c-0.1,0.1-0.2,0.3-0.3,0.4c-0.1,0.3-2.1,6.4,5.2,15.3L2.7,48.2
			c0,0-0.1,0.1-0.1,0.1l-1.9,5.1c-0.1,0.1,0,0.3,0.1,0.4c0.1,0.1,0.2,0.1,0.3,0.1c0,0,0.1,0,0.1,0l5.3-2.2c0,0,0.1,0,0.1-0.1
			l10.5-10.2c4.9,4.1,10,4.8,12.8,4.8c1.9,0,3-0.3,3.1-0.3c0.2-0.1,0.4-0.2,0.6-0.4c3.3-3.9,5.9-8.6,2.6-15.5l6.9-7
			c2,1,4,1.6,5.7,1.6c1.6,0,2.9-0.5,3.8-1.4C55.6,20.2,53.4,13.1,47.5,7.2z M33.4,14.4c-0.2,0-0.5,0-0.7,0.2c-0.3,0.3-0.3,0.9,0,1.2
			c0.3,0.3,0.9,0.3,1.2,0c0.1-0.1,0.2-0.3,0.2-0.5c0.4,0.5,0.8,1,1.2,1.5c-0.1,0-0.2,0.1-0.3,0.2c-0.3,0.3-0.3,0.9,0,1.2
			c0.3,0.3,0.9,0.3,1.2,0c0.1-0.1,0.1-0.1,0.1-0.2c0.1,0.1,0.1,0.1,0.2,0.2c0.4,0.4,0.7,0.7,1.1,1c-0.1,0-0.2,0.1-0.3,0.2
			c-0.3,0.3-0.3,0.9,0,1.2c0.3,0.3,0.9,0.3,1.2,0c0.1-0.1,0.2-0.2,0.2-0.4c0.6,0.5,1.2,1,1.9,1.4c-0.3-0.1-0.6-0.1-0.9,0.2
			c-0.3,0.3-0.3,0.8,0,1.2c0.1,0.1,0.1,0.1,0.2,0.1l-3.6,3.6c0-0.1-0.1-0.1-0.1-0.2c-0.3-0.3-0.9-0.3-1.2,0c-0.3,0.3-0.3,0.8,0,1.2
			c0.1,0.1,0.1,0.1,0.2,0.1l-3.6,3.6c0-0.1-0.1-0.1-0.1-0.2c-0.3-0.3-0.9-0.3-1.2,0c-0.3,0.3-0.3,0.8,0,1.1c-2-0.6-6.7-2.6-8.5-8.9
			l2.3-2.3c0,0.2,0.1,0.4,0.2,0.6c0.3,0.3,0.9,0.3,1.2,0c0.3-0.3,0.3-0.9,0-1.2c-0.2-0.2-0.4-0.2-0.6-0.2l3.9-3.8
			c0,0.2,0.1,0.3,0.2,0.5c0.3,0.3,0.9,0.3,1.2,0c0.3-0.3,0.3-0.8,0-1.2c-0.1-0.1-0.3-0.2-0.5-0.2l2.6-2.5
			C32.8,13.5,33.1,14,33.4,14.4z M32.1,43.7c-0.4,0.1-1.2,0.2-2.2,0.2c-2.9,0-8.5-0.8-13.5-6.4c-6.8-7.6-6.3-13-6-14.2
			c1-0.8,4.8-3.9,9.5-3.9c0.9,0,1.7,0.1,2.5,0.3l-2.6,2.5c-0.3,0.3-0.4,0.7-0.3,1.1c2.3,10.1,11,11.4,11.4,11.5c0.1,0,0.1,0,0.2,0
			c0.3,0,0.6-0.1,0.8-0.3l2.7-2.7C36.5,36.5,35.1,40.1,32.1,43.7z M41,21.9c0-0.1-0.1-0.1-0.1-0.1C41,21.8,41,21.9,41,21.9L41,21.9z
			 M51,21.6c-0.5,0.5-1.2,0.7-2.2,0.7c-2.9,0-7.1-2.3-10.7-5.8c-2.5-2.5-4.4-5.3-5.3-7.8c-0.8-2.3-0.7-4.1,0.2-5
			C33.5,3.3,34.2,3,35.2,3c2.9,0,7.1,2.3,10.7,5.8C51.1,14.1,52.8,19.8,51,21.6z"/>
		<ellipse transform="matrix(0.7083 -0.7059 0.7059 0.7083 -10.4254 24.036)" class="st1" cx="23.9" cy="24.6" rx="0.8" ry="0.8"/>
		<ellipse transform="matrix(0.7085 -0.7057 0.7057 0.7085 -11.4065 26.3745)" class="st1" cx="26.2" cy="27" rx="0.8" ry="0.8"/>
		<ellipse transform="matrix(0.7083 -0.7059 0.7059 0.7083 -12.3885 28.744)" class="st1" cx="28.6" cy="29.4" rx="0.8" ry="0.8"/>
		<ellipse transform="matrix(0.7086 -0.7056 0.7056 0.7086 -8.5776 26.1728)" class="st1" cx="27.4" cy="23.5" rx="0.8" ry="0.8"/>
		<ellipse transform="matrix(0.7071 -0.7071 0.7071 0.7071 -9.5531 28.6074)" class="st1" cx="29.8" cy="25.8" rx="0.8" ry="0.8"/>
		<ellipse transform="matrix(0.708 -0.7062 0.7062 0.708 -10.5385 30.9163)" class="st1" cx="32.1" cy="28.2" rx="0.8" ry="0.8"/>
		<ellipse transform="matrix(0.708 -0.7062 0.7062 0.708 -5.7433 26.0018)" class="st1" cx="28.6" cy="19.9" rx="0.8" ry="0.8"/>
		<ellipse transform="matrix(0.7074 -0.7068 0.7068 0.7074 -6.7198 28.3861)" class="st1" cx="30.9" cy="22.3" rx="0.8" ry="0.8"/>
		<ellipse transform="matrix(0.7083 -0.7059 0.7059 0.7083 -7.7094 30.6954)" class="st1" cx="33.3" cy="24.7" rx="0.8" ry="0.8"/>
		<ellipse transform="matrix(0.708 -0.7062 0.7062 0.708 -3.893 28.1543)" class="st1" cx="32.1" cy="18.8" rx="0.8" ry="0.8"/>
		<ellipse transform="matrix(0.7086 -0.7056 0.7056 0.7086 -4.8828 30.475)" class="st1" cx="34.5" cy="21.1" rx="0.8" ry="0.8"/>
		<ellipse transform="matrix(0.7089 -0.7053 0.7053 0.7089 -5.8683 32.8125)" class="st1" cx="36.8" cy="23.5" rx="0.8" ry="0.8"/>
	</g>
</g>
</svg>
