<?xml version="1.0" encoding="utf-8"?>
<!-- Generator: Adobe Illustrator 21.0.0, SVG Export Plug-In . SVG Version: 6.00 Build 0)  -->
<svg version="1.1" id="Laag_1" xmlns="http://www.w3.org/2000/svg" xmlns:xlink="http://www.w3.org/1999/xlink" x="0px" y="0px"
	 viewBox="0 0 69 69" style="enable-background:new 0 0 69 69;" xml:space="preserve">
<style type="text/css">
	.st0{fill:#FFFFFF;}
	.st1{fill:#1A1A18;}
</style>
<g>
	<path class="st0" d="M52.8,9.2c-3.3,0-5.1,2.6-5.2,6v12c-0.3-2.8-1.9-5-4.9-5c-3,0-4.8,2.2-5.1,5.2l0-0.5c0-3.3-1.6-6.1-5-6.1
		c-3.1,0-4.9,2.4-5.1,5.5l0-16.8c0-4.8-1.6-7.6-5-7.6c-3.3,0-5.1,2.6-5.2,6l-0.2,18c0,0-6.1-0.7-6.1,5.8c0,2.1-0.1,12.4,0,15.6
		c0.2,10.8,11,19.9,11,19.9h26.1c0,0,9.5-6.1,9.5-16l0-34.4C57.8,11.9,56.2,9.2,52.8,9.2z"/>
	<g>
		<path class="st1" d="M57.2,9.1c-1.1-1.1-2.6-1.7-4.4-1.7c-4.1,0-6.9,3.1-7,7.8v5.9c-0.9-0.5-2-0.7-3.1-0.7c-1.8,0-3.3,0.6-4.5,1.6
			c-0.1-0.2-0.2-0.4-0.4-0.6c-1.2-1.6-3.1-2.5-5.2-2.5c0,0,0,0,0,0c-1.2,0-2.3,0.3-3.3,0.8l0-10.3c0-3.5-0.8-6.1-2.4-7.7
			C25.9,0.6,24.4,0,22.7,0c0,0,0,0,0,0c-4.1,0-6.9,3.1-7,7.8v16.3c-1.2,0.2-2.7,0.6-4,1.7c-1.5,1.4-2.3,3.3-2.3,5.9
			c0,0.6,0,1.8,0,3.4c0,4,0,10,0,12.2c0.2,11.5,11.2,20.9,11.7,21.3c0.3,0.3,0.7,0.4,1.2,0.4h26.1c0.3,0,0.7-0.1,1-0.3
			c0.4-0.3,10.3-6.8,10.3-17.6l0-34.4C59.6,13.2,58.8,10.6,57.2,9.1z M56,51.1c0,7.7-6.5,13-8.2,14.2H22.9c-2-1.8-9.7-9.5-9.9-18.1
			c0-2.2,0-8.2,0-12.2c0-1.5,0-2.8,0-3.4c0-1.4,0.4-2.5,1.1-3.2c0.5-0.4,1-0.6,1.5-0.8v9.5c0,1,0.8,1.8,1.8,1.8c1,0,1.8-0.8,1.8-1.8
			V7.8c0-1,0.3-4.2,3.4-4.2c0,0,0,0,0,0c0.8,0,1.3,0.2,1.8,0.7c0.9,0.9,1.3,2.7,1.3,5.1l0,16.5c0,0.3,0,0.6,0,0.9l0,4.8
			c0,1,0.8,1.8,1.8,1.8h0c1,0,1.8-0.8,1.8-1.8l0-5.5c0.1-1.3,0.8-3.5,3.3-3.5h0c1,0,1.7,0.3,2.3,1.1c0.6,0.8,0.9,1.9,0.9,3.2l0,0.3
			c0,0.4-0.1,0.7-0.1,1.1l0,3.3c0,1,0.8,1.8,1.8,1.8h0c1,0,1.8-0.8,1.8-1.8l0-4.2c0.2-1.3,0.9-3.3,3.3-3.3c0,0,0,0,0,0
			c1,0,1.7,0.3,2.3,1.1c0.4,0.6,0.7,1.3,0.8,2.2v4.2c0,0.6,0.3,1.2,0.8,1.5c0.6,0.4,1.3,0.5,1.9,0.2c0.6-0.3,1-0.9,1-1.6v-3.3
			c0-0.4,0-0.8-0.1-1.3V15.2c0-1,0.3-4.2,3.4-4.2c0.8,0,1.4,0.2,1.8,0.7c0.9,0.9,1.3,2.7,1.3,5.1L56,51.1z"/>
		<circle class="st1" cx="40.7" cy="42" r="1.1"/>
		<circle class="st1" cx="29.8" cy="37.6" r="1.1"/>
		<circle class="st1" cx="38.5" cy="37.6" r="1.1"/>
		<circle class="st1" cx="49.4" cy="59.3" r="1.1"/>
		<circle class="st1" cx="47.2" cy="54.9" r="1.1"/>
		<circle class="st1" cx="51.6" cy="54.9" r="1.1"/>
		<circle class="st1" cx="45.1" cy="50.5" r="1.1"/>
		<circle class="st1" cx="49.4" cy="50.5" r="1.1"/>
		<circle class="st1" cx="53.7" cy="50.5" r="1.1"/>
		<circle class="st1" cx="51.6" cy="37.4" r="1.1"/>
		<circle class="st1" cx="51.6" cy="28.7" r="1.1"/>
		<circle class="st1" cx="53.8" cy="33.1" r="1.1"/>
		<circle class="st1" cx="47.2" cy="46.2" r="1.1"/>
		<circle class="st1" cx="51.6" cy="46.2" r="1.1"/>
		<circle class="st1" cx="45" cy="41.8" r="1.1"/>
		<circle class="st1" cx="36.3" cy="41.8" r="1.1"/>
		<circle class="st1" cx="25.4" cy="37.4" r="1.1"/>
		<circle class="st1" cx="34.1" cy="37.4" r="1.1"/>
		<circle class="st1" cx="42.8" cy="37.4" r="1.1"/>
		<circle class="st1" cx="42.8" cy="46.2" r="1.1"/>
		<circle class="st1" cx="47.2" cy="37.4" r="1.1"/>
		<circle class="st1" cx="49.4" cy="41.8" r="1.1"/>
		<circle class="st1" cx="53.8" cy="41.8" r="1.1"/>
		<circle class="st1" cx="51.6" cy="20" r="1.1"/>
		<circle class="st1" cx="53.8" cy="24.3" r="1.1"/>
		<circle class="st1" cx="53.8" cy="15.6" r="1.1"/>
	</g>
</g>
</svg>
