<?xml version="1.0" encoding="utf-8"?>
<!-- Generator: Adobe Illustrator 21.0.0, SVG Export Plug-In . SVG Version: 6.00 Build 0)  -->
<svg version="1.1" id="Laag_1" xmlns="http://www.w3.org/2000/svg" xmlns:xlink="http://www.w3.org/1999/xlink" x="0px" y="0px"
	 viewBox="0 0 69 69" style="enable-background:new 0 0 69 69;" xml:space="preserve">
<style type="text/css">
	.st0{fill:#FFFFFF;}
	.st1{fill:#1A1A18;}
</style>
<g>
	<circle class="st0" cx="34.5" cy="33.8" r="30"/>
	<g>
		<circle class="st1" cx="29.1" cy="31.5" r="2.3"/>
		<circle class="st1" cx="39.9" cy="31.5" r="2.3"/>
		<path class="st1" d="M40.4,42.3c-0.9-0.1-1.8,0.6-1.8,1.6c-0.2,2-1.6,4.1-4,4.1c-2.1,0-3.9-1.8-4-4.1c-0.1-0.9-0.9-1.7-1.8-1.6
			c-0.9,0.1-1.7,0.9-1.6,1.8c0.3,4.2,3.4,7.3,7.4,7.3c3.9,0,7.1-3.1,7.4-7.3C42,43.2,41.3,42.4,40.4,42.3z"/>
		<path class="st1" d="M34.5,0C15.8,0,0.7,15.2,0.7,33.8c0,0.3,0,0.5,0,0.8v32.8c0,0.4,0.2,0.8,0.5,1.1C1.4,68.8,1.8,69,2.2,69
			c0,0,0,0,0.1,0l11.3-0.4c0.8,0,1.4-0.7,1.5-1.5l0.6-5.2c5.4,3.6,11.9,5.7,18.8,5.7c7,0,13.4-2.1,18.8-5.7l0.6,5.2
			c0,0.8,0.7,1.4,1.5,1.5L66.7,69c0,0,0,0,0.1,0c0.4,0,0.8-0.2,1.1-0.4c0.3-0.3,0.5-0.7,0.5-1.1V34.6c0-0.3,0-0.5,0-0.8
			C68.3,15.2,53.2,0,34.5,0z M34.5,60C20.1,60,8.4,48.3,8.4,33.8c0-3.4,0.7-6.6,1.8-9.5c1.6,0,4.2,0.1,6.6,0.1c2.3,0,4,0,5-0.1
			c4.2-0.4,5-3.2,5.5-5.7c1.2,2.4,2.7,4.9,5.1,5.6c2.3,0.7,5.9,1,11.2,1c5.5,0,11.5-0.4,15.3-0.7c1.1,2.9,1.7,6,1.7,9.3
			C60.6,48.3,48.9,60,34.5,60z"/>
		<circle class="st1" cx="13.8" cy="39" r="1"/>
		<circle class="st1" cx="17.9" cy="39" r="1"/>
		<circle class="st1" cx="15.8" cy="43.2" r="1"/>
		<circle class="st1" cx="20" cy="43.2" r="1"/>
		<circle class="st1" cx="51.1" cy="39" r="1"/>
		<circle class="st1" cx="55.2" cy="39" r="1"/>
		<circle class="st1" cx="49" cy="43.2" r="1"/>
		<circle class="st1" cx="53.2" cy="43.2" r="1"/>
	</g>
</g>
</svg>
